<svg id="visual" viewBox="0 0 900 600" width="900" height="600" xmlns="http://www.w3.org/2000/svg" xmlns:xlink="http://www.w3.org/1999/xlink" version="1.1"><rect x="0" y="0" width="900" height="600" fill="#1F2937"></rect><path d="M0 347L50 370L100 345L150 360L200 358L250 372L300 344L350 364L400 327L450 370L500 377L550 356L600 374L650 363L700 348L750 334L800 345L850 349L900 338L900 601L850 601L800 601L750 601L700 601L650 601L600 601L550 601L500 601L450 601L400 601L350 601L300 601L250 601L200 601L150 601L100 601L50 601L0 601Z" fill="#fcaf3c"></path><path d="M0 391L50 389L100 393L150 395L200 384L250 414L300 401L350 380L400 370L450 384L500 373L550 405L600 415L650 389L700 392L750 387L800 387L850 411L900 385L900 601L850 601L800 601L750 601L700 601L650 601L600 601L550 601L500 601L450 601L400 601L350 601L300 601L250 601L200 601L150 601L100 601L50 601L0 601Z" fill="#ff8354"></path><path d="M0 443L50 429L100 456L150 455L200 454L250 426L300 454L350 448L400 433L450 417L500 424L550 422L600 444L650 453L700 452L750 418L800 417L850 446L900 447L900 601L850 601L800 601L750 601L700 601L650 601L600 601L550 601L500 601L450 601L400 601L350 601L300 601L250 601L200 601L150 601L100 601L50 601L0 601Z" fill="#ff5a7b"></path><path d="M0 467L50 497L100 488L150 452L200 473L250 484L300 464L350 455L400 475L450 496L500 483L550 468L600 463L650 456L700 458L750 472L800 474L850 475L900 457L900 601L850 601L800 601L750 601L700 601L650 601L600 601L550 601L500 601L450 601L400 601L350 601L300 601L250 601L200 601L150 601L100 601L50 601L0 601Z" fill="#ed47a8"></path><path d="M0 512L50 505L100 523L150 505L200 499L250 513L300 502L350 501L400 532L450 527L500 518L550 514L600 511L650 528L700 517L750 521L800 498L850 506L900 528L900 601L850 601L800 601L750 601L700 601L650 601L600 601L550 601L500 601L450 601L400 601L350 601L300 601L250 601L200 601L150 601L100 601L50 601L0 601Z" fill="#af52d0"></path><path d="M0 571L50 542L100 566L150 559L200 545L250 576L300 562L350 575L400 573L450 549L500 536L550 546L600 553L650 558L700 553L750 541L800 566L850 560L900 567L900 601L850 601L800 601L750 601L700 601L650 601L600 601L550 601L500 601L450 601L400 601L350 601L300 601L250 601L200 601L150 601L100 601L50 601L0 601Z" fill="#0664e8"></path></svg>